<svg xmlns="http://www.w3.org/2000/svg" xmlns:xlink="http://www.w3.org/1999/xlink" width="2343.04" height="300" viewBox="0 0 2343.04 300"><defs><style>.cls-1{fill:#4a66a9;}.cls-2{fill:#4174b4;}.cls-3{fill:#3880b7;}.cls-4{fill:#3287b4;}.cls-5{fill:#2793b2;}.cls-6{fill:#209fb0;}.cls-7{fill:#14abae;}.cls-8{fill:url(#名称未設定グラデーション_14);}.cls-9{fill:url(#名称未設定グラデーション_14-2);}.cls-10{fill:url(#名称未設定グラデーション_14-3);}.cls-11{fill:url(#名称未設定グラデーション_14-4);}.cls-12{fill:url(#名称未設定グラデーション_14-5);}.cls-13{fill:url(#名称未設定グラデーション_14-13);}</style><linearGradient id="名称未設定グラデーション_14" x1="433.47" y1="-0.52" x2="2339.5" y2="-0.52" gradientTransform="translate(0 152.5)" gradientUnits="userSpaceOnUse"><stop offset="0" stop-color="#14abae"/><stop offset="1" stop-color="#4b69b0"/></linearGradient><linearGradient id="名称未設定グラデーション_14-2" x1="433.47" y1="-2.32" x2="2339.5" y2="-2.32" xlink:href="#名称未設定グラデーション_14"/><linearGradient id="名称未設定グラデーション_14-3" x1="433.47" y1="-2.7" x2="2339.5" y2="-2.7" xlink:href="#名称未設定グラデーション_14"/><linearGradient id="名称未設定グラデーション_14-4" x1="433.47" y1="-2.63" x2="2339.5" y2="-2.63" xlink:href="#名称未設定グラデーション_14"/><linearGradient id="名称未設定グラデーション_14-5" x1="433.47" y1="-2.76" x2="2339.5" y2="-2.76" xlink:href="#名称未設定グラデーション_14"/><linearGradient id="名称未設定グラデーション_14-13" x1="433.47" y1="-2.7" x2="2339.5" y2="-2.7" xlink:href="#名称未設定グラデーション_14"/></defs><title>logo</title><g id="レイヤー_2" data-name="レイヤー 2"><g id="Layer_1" data-name="Layer 1"><path class="cls-1" d="M141.65,46.42l80.93,46.73a7.36,7.36,0,0,0,7.4,0l23.1-13.52a7.36,7.36,0,0,0,0-12.72L141.69,2.59A19.16,19.16,0,0,0,132,0V43.83A19.32,19.32,0,0,1,141.65,46.42Z"/><path class="cls-2" d="M40.05,97.28a19.22,19.22,0,0,1,7.32-7.57l75-43.29A19.35,19.35,0,0,1,132,43.83V0a19.32,19.32,0,0,0-9.67,2.62L9.59,68.23a19.2,19.2,0,0,0-7.15,7.33Z"/><path class="cls-3" d="M40.05,97.28a19.32,19.32,0,0,0-2.34,9.15V193a19.17,19.17,0,0,0,2.4,9.25c.16.29.32.58.5.86L2.87,224.92A19.21,19.21,0,0,1,0,214.86v-130a19.2,19.2,0,0,1,2.44-9.35Z"/><path class="cls-4" d="M40.61,203.13a19.26,19.26,0,0,0,6.76,6.6l75,43.3a19.34,19.34,0,0,0,9.65,2.58V300a19.23,19.23,0,0,1-9.73-2.64L9.57,231.52a19.08,19.08,0,0,1-6.7-6.6Z"/><path class="cls-5" d="M223.39,203.13a19.23,19.23,0,0,1-6.75,6.6l-75,43.3a19.28,19.28,0,0,1-9.65,2.58V300a19.27,19.27,0,0,0,9.74-2.64l112.7-65.84a19.22,19.22,0,0,0,6.7-6.59Z"/><path class="cls-6" d="M223.39,203.13l37.75,21.8A19.27,19.27,0,0,0,264,214.86V114.29a6.18,6.18,0,0,0-3.12-5.4L223.4,173.82a5.76,5.76,0,0,1,2.89,5V193A19.2,19.2,0,0,1,223.39,203.13Z"/><path class="cls-7" d="M254.65,108.89l-116,67A13.21,13.21,0,0,0,132,187.32v25.1a6.25,6.25,0,0,0,9.37,5.42l76.24-44a5.76,5.76,0,0,1,5.79,0l37.49-64.93A6.19,6.19,0,0,0,254.65,108.89Z"/><path class="cls-8" d="M621.59,102.74a6.83,6.83,0,0,1,7.13-5.15h9.77q5.53,0,7.13,5.15l33.92,96.1c1.58,4.49-.4,7.39-5.15,7.39h-7q-5.55,0-7.13-5.15l-7.66-22.57h-38L607.07,201a6.82,6.82,0,0,1-7.13,5.41h-7c-4.76,0-6.74-2.9-5.15-7.39Zm26.14,59.53-9.64-29c-1.85-6.07-4.22-16.76-4.22-16.76h-.27s-2.5,10.69-4.22,16.76l-9.77,29Z"/><path class="cls-9" d="M538.54,184.06c0-6.09,0,4.31,0-30.47,0-4.28-2.14-6.42-6.27-6.42h-21.7c-4.13,0-6.42,2.14-6.42,6.42v4.13a6.42,6.42,0,0,0,6.42,6.41H521v13.45c-26.27,22.22-62.88,7.49-63.71-26.77C456.73,129.9,469.81,112,494.05,112a46.06,46.06,0,0,1,24.15,6.72c3.82,2.14,6.57,1.84,8.87-1.68l2.75-4.28c2.29-3.51,2-6.26-1.38-8.86-1.51-1.06-14.82-9.93-35.26-9.93-31.65,0-56.28,24.23-56.28,56.58v0c0,56.34,65.29,71.77,98.91,38.15C538.83,185.72,538.54,186.08,538.54,184.06Z"/><path class="cls-10" d="M803.49,112.51H774.32c-4.23,0-6.47-2.11-6.47-6.34V102c0-4.09,2.11-6.47,6.47-6.47h78c4.09,0,6.34,2.25,6.34,6.47v4.22c0,4.1-2.11,6.34-6.34,6.34H823.16v85.14c0,4.23-2.11,6.47-6.47,6.47h-6.86c-4.09,0-6.34-2.11-6.34-6.47Z"/><path class="cls-11" d="M909.42,102c0-4.09,2.18-6.47,6.41-6.47H968c4.09,0,6.46,2.25,6.46,6.47v4.22c0,4.1-2.24,6.34-6.46,6.34H929V141h30.22c4.1,0,6.47,2.11,6.47,6.34v4.22c0,4.23-2.24,6.47-6.47,6.47H929v29.17h41.44c4.1,0,6.47,2.12,6.47,6.34v4.22c0,4.23-2.24,6.47-6.47,6.47H915.69c-4.09,0-6.27-2.11-6.27-6.47Z"/><path class="cls-12" d="M1077.93,93.63a61.11,61.11,0,0,1,35.5,10.83c3.17,2.51,3.3,5.54,1.19,8.84l-2.77,4.49c-2.11,3.56-5,3.83-8.71,1.58-4.75-3-13.33-7.65-24.42-7.65-23.76,0-36.44,17.29-36.44,37.35,0,20.33,13.2,38.81,36.57,38.81,12.28,0,21.52-5.8,26.66-9.5,3.3-2.51,6.47-2.51,8.85,1.06l3,4.09c2.25,3,2.12,6.33-.92,8.84a60.85,60.85,0,0,1-38.41,13.47c-34.06,0-56.1-24.69-56.1-56.63C1022,117.79,1045.06,93.63,1077.93,93.63Z"/><path class="cls-10" d="M1175.94,102c0-4.09,2.18-6.47,6.4-6.47h7c4.09,0,6.33,2.25,6.33,6.47v39.6h49.77V102c0-4.09,2.11-6.47,6.46-6.47h6.87c4.09,0,6.34,2.25,6.34,6.47v95.7c0,4.23-2.12,6.47-6.34,6.47h-7c-4.22,0-6.47-2.11-6.47-6.47v-39.2h-49.76v39.2c0,4.23-2.11,6.47-6.34,6.47h-7c-4.09,0-6.27-2.11-6.27-6.47Z"/><path class="cls-11" d="M1330.45,102c0-4.09,2.11-6.47,6.33-6.47h8.32c3.69,0,5.94,1.19,7.66,4.23l38.54,58.47c4.09,6.47,9,16.77,9,16.77h.26s-1.06-10.43-1.06-16.77V102c0-4.09,2.25-6.47,6.47-6.47h6.87c4.09,0,6.46,2.25,6.46,6.47v95.7c0,4.23-2.24,6.47-6.46,6.47h-8.32a7.89,7.89,0,0,1-7.52-4.22l-38.68-58.22c-4-6.47-9-16.76-9-16.76h-.26s1.06,10.43,1.06,16.76v56.1c0,4.23-2.12,6.47-6.34,6.47h-7c-4.09,0-6.33-2.11-6.33-6.47Z"/><path class="cls-12" d="M1532,93.63c32.86,0,56.1,24.29,56.1,55.31,0,31.95-23.24,56.9-56.1,56.9s-56.11-25-56.11-56.9C1475.91,118.05,1499.15,93.63,1532,93.63Zm0,94.25c20.85,0,35.77-16.76,35.77-38.81,0-21.12-15-37.35-35.77-37.35s-35.78,16.23-35.78,37.35C1496.24,171.12,1511.29,187.88,1532,187.88Z"/><path class="cls-10" d="M1647,102c0-4.09,2.11-6.47,6.34-6.47h7c4.09,0,6.34,2.25,6.34,6.47v85.14h40.52c4.23,0,6.47,2.11,6.47,6.34v4.22c0,4.23-2.11,6.47-6.47,6.47h-53.85c-4.1,0-6.34-2.11-6.34-6.47Z"/><path class="cls-12" d="M1807.77,93.63c32.87,0,56.1,24.29,56.1,55.31,0,31.95-23.23,56.9-56.1,56.9s-56.1-25-56.1-56.9C1751.54,118.05,1774.9,93.63,1807.77,93.63Zm0,94.25c20.86,0,35.77-16.76,35.77-38.81,0-21.12-15-37.35-35.77-37.35S1772,128,1772,149.07C1772,171.12,1786.91,187.88,1807.77,187.88Z"/><path class="cls-10" d="M2068.61,102c0-4.09,2.11-6.47,6.33-6.47h7c4.09,0,6.34,2.25,6.34,6.47v95.7c0,4.23-2.12,6.47-6.34,6.47h-7c-4.09,0-6.33-2.11-6.33-6.47Z"/><path class="cls-11" d="M2151.9,102c0-4.09,2.11-6.47,6.34-6.47h52.27c4.09,0,6.47,2.25,6.47,6.47v4.22c0,4.1-2.25,6.34-6.47,6.34h-38.94V141h30.23c4.09,0,6.47,2.11,6.47,6.34v4.22c0,4.23-2.25,6.47-6.47,6.47h-30.23v29.17H2213c4.09,0,6.47,2.12,6.47,6.34v4.22c0,4.23-2.25,6.47-6.47,6.47h-54.78c-4.1,0-6.34-2.11-6.34-6.47Z"/><path class="cls-13" d="M2273,186l3.3-4.89c2.51-3.3,5-3.56,8.84-1.32,3.57,2.51,11.35,7.92,22,7.92,10,0,16.23-5,16.23-12.41,0-20.59-50.55-16.37-50.55-50.16,0-19.14,15.84-31.55,36.56-31.55,12.8,0,23.36,4.89,28,8.32,3.3,2.51,3.83,5.41,2,8.71l-2.77,5c-2.24,4.49-5.54,3.83-8.71,2.11-4.49-2.64-10.43-5.94-18.88-5.94-10,0-16.5,4.88-16.5,12.28,0,20.32,50.56,15.18,50.56,49.76,0,17.56-13.2,32.08-35.9,32.08a58.28,58.28,0,0,1-33.4-11C2271.5,192.77,2269.91,190.13,2273,186Z"/><path class="cls-9" d="M2014,184.06c0-6.09,0,4.31,0-30.47,0-4.28-2.14-6.42-6.27-6.42H1986c-4.13,0-6.42,2.14-6.42,6.42v4.13a6.41,6.41,0,0,0,6.42,6.41h10.39v13.45c-26.27,22.22-62.88,7.49-63.72-26.77-.51-20.91,12.58-38.79,36.82-38.79a46.06,46.06,0,0,1,24.15,6.72c3.82,2.14,6.57,1.84,8.86-1.68l2.76-4.28c2.29-3.51,2-6.26-1.38-8.86-1.51-1.06-14.82-9.93-35.26-9.93-31.65,0-56.28,24.23-56.28,56.58v0c0,56.34,65.29,71.77,98.91,38.15C2014.27,185.72,2014,186.08,2014,184.06Z"/></g></g></svg>